<?xml version="1.0" encoding="utf-8"?>
<!-- Generator: Adobe Illustrator 15.0.0, SVG Export Plug-In  -->
<svg version="1.1" baseProfile="basic"
	 xmlns="http://www.w3.org/2000/svg" xmlns:xlink="http://www.w3.org/1999/xlink" xmlns:a="http://ns.adobe.com/AdobeSVGViewerExtensions/3.0/"
	 x="0px" y="0px" width="100px" height="14px" viewBox="0 4.028 100 14" overflow="visible" enable-background="new 0 4.028 100 14"
	 xml:space="preserve">
<defs>
</defs>
<rect x="11.975" display="none" fill="#7F4612" width="1.052" height="24.667"/>
<rect x="24.475" display="none" fill="#7F4612" width="1.052" height="24.667"/>
<rect x="36.976" y="0.333" display="none" fill="#7F4612" width="1.052" height="24.667"/>
<rect x="49.474" y="0.333" display="none" fill="#7F4612" width="1.052" height="24.667"/>
<rect x="61.974" y="0.333" display="none" fill="#7F4612" width="1.052" height="24.668"/>
<rect x="74.474" y="0.333" display="none" fill="#7F4612" width="1.052" height="24.668"/>
<rect x="86.976" y="0.333" display="none" fill="#7F4612" width="1.052" height="24.668"/>
<rect class="vu-0" y="4.028" fill="#9AC31C" width="11.975" height="14"/>
<rect class="vu-1" x="13.026" y="4.027" fill="#9AC31C" width="11.449" height="14.001"/>
<rect class="vu-2" x="25.527" y="4.027" fill="#9AC31C" width="11.449" height="14.001"/>
<rect class="vu-3" x="38.027" y="4.026" fill="#9AC31C" width="11.447" height="14.001"/>
<rect class="vu-4" x="50.526" y="4.027" fill="#9AC31C" width="11.448" height="14"/>
<rect class="vu-5" x="63.026" y="4.026" fill="#9AC31C" width="11.448" height="14.001"/>
<rect class="vu-6" x="75.526" y="4.026" fill="#9AC31C" width="11.45" height="14.001"/>
<rect class="vu-7" x="88.028" y="4.025" fill="#9AC31C" width="11.975" height="14.001"/>
</svg>
