<?xml version="1.0" encoding="UTF-8" standalone="no"?>
<svg viewBox="0 0 40 37" version="1.1" xmlns="http://www.w3.org/2000/svg" xmlns:xlink="http://www.w3.org/1999/xlink">
    <!-- Generator: sketchtool 40.1 (33804) - http://www.bohemiancoding.com/sketch -->
    <title>DF0E2691-5F12-4B76-A6CF-C57F61D1F847</title>
    <desc>Created with sketchtool.</desc>
    <defs></defs>
    <g id="Atoms" stroke="none" stroke-width="1" >
        <g id="Modelsheet-#1" transform="translate(-351.000000, -1767.000000)" >
            <g id="Content-Icons" transform="translate(135.000000, 1304.000000)">
                <g id="Chat" transform="translate(216.000000, 463.000000)">
                    <path d="M3.33180573,14.0465455 C3.33180573,17.1965909 4.74686469,18.9961364 6.1369226,20.6779545 C6.18859142,22.3597727 6.27859516,23.4832273 5.58189947,26.0311818 C8.49535418,25.0927273 8.97870765,24.7227273 10.5954417,23.7203636 C12.2621778,24.1307273 13.0522107,24.3611364 14.9472896,24.5461364 C14.7906164,25.7368636 14.812284,26.6904545 15.0389601,27.9484545 C13.7855746,27.8475455 12.4921874,27.6490909 11.155465,27.3194545 C8.82703467,28.7607727 3.68682052,30.2205909 0.0733366534,30.8765 C1.42505963,28.194 2.92012192,24.5108182 2.84178532,21.9426818 C1.02504297,19.7479091 2.64849781e-07,16.9241364 2.64849781e-07,14.0465455 C-0.00166647125,5.93009091 7.8636612,0 16.6656946,0 C25.3943915,0 33.2947207,5.85945455 33.3297221,13.9893636 C32.2563441,13.6950455 31.126297,13.5235 29.9612485,13.4612727 C29.5795659,7.844 23.7726573,3.36363636 16.6656946,3.36363636 C9.31372161,3.36363636 3.33180573,8.15681818 3.33180573,14.0465455 L3.33180573,14.0465455 Z M38.1382558,31.1489545 C38.0899204,32.8324545 39.0682945,35.2441818 39.9516647,37 C37.5865661,36.5660909 34.2214259,35.6141818 32.6980291,34.6706818 C31.4113089,34.9868636 30.1745907,35.1315 29.0095421,35.1315 C22.5676071,35.1315 18.1790909,30.6864545 18.1790909,25.9790455 C18.1790909,20.6409545 23.3626402,16.7845455 29.0895455,16.7845455 C34.8514522,16.7845455 40,20.6678636 40,25.9790455 C40,27.8626818 39.3283054,29.7143636 38.1382558,31.1489545 L38.1382558,31.1489545 Z M25.5327306,26.0681818 C25.5327306,25.3063182 24.9193717,24.6890909 24.166007,24.6890909 C23.4126423,24.6890909 22.7992834,25.3063182 22.7992834,26.0681818 C22.7992834,26.8300455 23.4126423,27.4472727 24.166007,27.4472727 C24.9193717,27.4472727 25.5327306,26.8300455 25.5327306,26.0681818 L25.5327306,26.0681818 Z M30.5329389,26.0681818 C30.5329389,25.3063182 29.91958,24.6890909 29.1662153,24.6890909 C28.4128506,24.6890909 27.7994917,25.3063182 27.7994917,26.0681818 C27.7994917,26.8300455 28.4128506,27.4472727 29.1662153,27.4472727 C29.91958,27.4472727 30.5329389,26.8300455 30.5329389,26.0681818 L30.5329389,26.0681818 Z M35.5331472,26.0681818 C35.5331472,25.3063182 34.9197884,24.6890909 34.1664236,24.6890909 C33.4130589,24.6890909 32.7997,25.3063182 32.7997,26.0681818 C32.7997,26.8300455 33.4130589,27.4472727 34.1664236,27.4472727 C34.9197884,27.4472727 35.5331472,26.8300455 35.5331472,26.0681818 L35.5331472,26.0681818 Z" id="Shape"></path>
                </g>
            </g>
        </g>
    </g>
</svg>
