<?xml version="1.0" encoding="UTF-8" standalone="no"?>
<svg width="33px" height="40px" viewBox="0 0 33 40" version="1.1" xmlns="http://www.w3.org/2000/svg" xmlns:xlink="http://www.w3.org/1999/xlink">
    <!-- Generator: sketchtool 40.1 (33804) - http://www.bohemiancoding.com/sketch -->
    <title>D9EDB749-4F90-40C2-8513-30BE60BD7067</title>
    <desc>Created with sketchtool.</desc>
    <defs></defs>
    <g id="Atoms" stroke="none" stroke-width="1" fill="none" fill-rule="evenodd">
        <g id="Modelsheet-#1" transform="translate(-852.000000, -1765.000000)" fill="#34495E">
            <g id="Content-Icons" transform="translate(135.000000, 1304.000000)">
                <g id="Classroom" transform="translate(717.000000, 461.000000)">
                    <path d="M30.6801,28.0533333 C13.07955,35.3233333 -2.06085,20.2716667 5.19915,2.315 L30.6801,28.0533333 L30.6801,28.0533333 Z M0,40 L4.8675,40 C6.5175,38.4616667 8.17245,36.6666667 10.72665,36.6666667 C13.27755,36.6666667 14.93415,38.4616667 16.58415,40 L21.45,40 L10.725,30 L2.93098879e-15,40 L0,40 Z M18.28365,10.845 L22.2618,14.865 C23.3607,13.755 23.3607,11.955 22.2618,10.845 C21.1629,9.735 19.38255,9.735 18.28365,10.845 L18.28365,10.845 Z M19.8,0 L19.8,2.65333333 C26.04195,2.65333333 30.3732,6.96 30.3732,13.3333333 L33,13.3333333 C33,5.44333333 27.4527,0 19.8,0 L19.8,0 Z M19.8,5.02333333 L19.8,7.69833333 C23.3145,7.69833333 25.37865,9.76833333 25.37865,13.3333333 L28.0269,13.3333333 C28.0269,8.305 24.783,5.02333333 19.8,5.02333333 L19.8,5.02333333 Z" id="Shape"></path>
                </g>
            </g>
        </g>
    </g>
</svg>