<?xml version="1.0" encoding="UTF-8" standalone="no"?>
<svg viewBox="0 0 40 40" version="1.1" xmlns="http://www.w3.org/2000/svg" xmlns:xlink="http://www.w3.org/1999/xlink">
    <g id="Atoms" stroke="none" stroke-width="1" >
        <g id="Modelsheet-#1" transform="translate(-149.000000, -1765.000000)" >
            <g id="Content-Icons" transform="translate(135.000000, 1304.000000)">
                <g id="Content" transform="translate(14.000000, 461.000000)">
                    <path d="M36.065,23.3333333 L33.8433333,36.6666667 L6.15666667,36.6666667 L3.935,23.3333333 L36.065,23.3333333 L36.065,23.3333333 Z M40,20 L0,20 L3.33333333,40 L36.6666667,40 L40,20 L40,20 Z M7.95666667,16.6666667 L12.4016667,3.33333333 L27.5966667,3.33333333 L32.0416667,16.6666667 L35.5533333,16.6666667 L30,0 L10,0 L4.445,16.6666667 L7.95666667,16.6666667 L7.95666667,16.6666667 Z M13.37,8.33333333 L12.815,10 L27.1833333,10 L26.6283333,8.33333333 L13.37,8.33333333 L13.37,8.33333333 Z M12.2583333,11.6666667 L11.7033333,13.3333333 L28.295,13.3333333 L27.74,11.6666667 L12.2583333,11.6666667 L12.2583333,11.6666667 Z M29.4083333,16.6666667 L28.8533333,15 L11.1466667,15 L10.5916667,16.6666667 L29.4083333,16.6666667 L29.4083333,16.6666667 Z M14.4816667,5 L13.9266667,6.66666667 L26.0733333,6.66666667 L25.5166667,5 L14.4816667,5 L14.4816667,5 Z" id="Shape"></path>
                </g>
            </g>
        </g>
    </g>
</svg>
