<?xml version="1.0" encoding="UTF-8" standalone="no"?>
<svg width="40px" height="37px" viewBox="0 0 40 37" version="1.1" xmlns="http://www.w3.org/2000/svg" xmlns:xlink="http://www.w3.org/1999/xlink">
    <!-- Generator: sketchtool 40.1 (33804) - http://www.bohemiancoding.com/sketch -->
    <title>56CF4137-C6EB-46F7-9062-8E1112FCA450</title>
    <desc>Created with sketchtool.</desc>
    <defs></defs>
    <g id="Atoms" stroke="none" stroke-width="1">
        <g id="Modelsheet-#1" transform="translate(-1248.000000, -1227.000000)">
            <g id="Classroom-Controls" transform="translate(135.000000, 1168.000000)">
                <g id="Disabled-Keyboard" transform="translate(1113.000000, 59.000000)">
                    <path d="M29.4675478,15.0656118 L26.6666667,17.8664929 L26.6666667,20.1668237 L24.3663359,20.1668237 L22.6659319,21.8672277 L28.3333333,21.8672277 L28.3333333,25.2680357 L19.2651239,25.2680357 L14.1639119,30.3692477 L40,30.3692477 L40,6.56359182 L37.9695678,6.56359182 L32.8683558,11.6648038 L35,11.6648038 L35,15.0656118 L31.6666667,15.0656118 L31.6666667,12.8664929 L30,14.5331596 L30,15.0656118 L29.4675478,15.0656118 Z M18.2337736,15.0656118 L16.5333696,16.7660158 L13.3333333,16.7660158 L13.3333333,19.966052 L2.93013769,30.3692477 L0,30.3692477 L0,6.56359182 L26.7357935,6.56359182 L20,13.2993854 L20,11.6648038 L16.6666667,11.6648038 L16.6666667,15.0656118 L18.2337736,15.0656118 Z M35,20.1668237 L28.3333333,20.1668237 L28.3333333,16.7660158 L35,16.7660158 L35,20.1668237 Z M5,16.7660158 L11.6666667,16.7660158 L11.6666667,20.1668237 L5,20.1668237 L5,16.7660158 Z M5,11.6648038 L10,11.6648038 L10,15.0656118 L5,15.0656118 L5,11.6648038 Z M11.6666667,11.6648038 L15,11.6648038 L15,15.0656118 L11.6666667,15.0656118 L11.6666667,11.6648038 Z M36.5996157,0.0115301363 L38.5638012,1.97571564 L3.55104702,36.9884699 L1.58686152,35.0242844 L36.5996157,0.0115301363 Z" id="Combined-Shape"></path>
                </g>
            </g>
        </g>
    </g>
</svg>
