<?xml version="1.0" encoding="UTF-8" standalone="no"?>
<svg viewBox="0 0 41 33" version="1.1" xmlns="http://www.w3.org/2000/svg" xmlns:xlink="http://www.w3.org/1999/xlink">
    <g id="Atoms" stroke="none" stroke-width="1" >
        <g id="Modelsheet-#1" transform="translate(-1049.000000, -1230.000000)" >
            <g id="Classroom-Controls" transform="translate(135.000000, 1168.000000)">
                <g id="Disabled-Webcam" transform="translate(914.000000, 62.000000)">
                    <path d="M14.0582196,25.30502 L24.9331594,25.30502 C26.7069386,25.30502 28.1465275,23.9498891 28.1465275,22.2801743 L28.1465275,11.2167121 L14.0582196,25.30502 Z M3.74375172,24.7129549 C2.95271881,24.1617859 2.43958264,23.2770463 2.43958264,22.2801743 L2.43958264,10.1807916 C2.43958264,8.51107681 3.87917155,7.15594595 5.65295075,7.15594595 L21.3007606,7.15594595 L3.74375172,24.7129549 Z M41,7.15594595 L31.3598957,13.5429076 L31.3598957,18.9180584 L41,25.30502 L41,7.15594595 Z M32.0342551,0.00778891328 L33.8520106,1.82554442 L2.68534398,32.9922111 L0.867588474,31.1744556 L32.0342551,0.00778891328 Z" id="Combined-Shape"></path>
                </g>
            </g>
        </g>
    </g>
</svg>
