<?xml version="1.0" encoding="UTF-8" standalone="no"?>
<svg width="37px" height="36px" viewBox="0 0 37 36" version="1.1" xmlns="http://www.w3.org/2000/svg" xmlns:xlink="http://www.w3.org/1999/xlink">
    <!-- Generator: sketchtool 40.1 (33804) - http://www.bohemiancoding.com/sketch -->
    <title>F424513E-5BC7-4460-A685-7330B63D1446</title>
    <desc>Created with sketchtool.</desc>
    <defs></defs>
    <g id="Atoms" stroke="none" stroke-width="1" fill="none" fill-rule="evenodd">
        <g id="Modelsheet-#1" transform="translate(-953.000000, -1017.000000)" fill="#34495E">
            <g id="Document-Type" transform="translate(135.000000, 950.000000)">
                <g id="Document" transform="translate(818.454545, 67.000000)">
                    <path d="M32,0 L4,0 C1.8,0 0,1.8 0,4 L0,32 C0,34.2 1.8,36 4,36 L32,36 C34.2,36 36,34.2 36,32 L36,4 C36,1.8 34.2,0 32,0 L32,0 Z M28,12 L8,12 L8,8 L28,8 L28,12 L28,12 Z M28,20 L8,20 L8,16 L28,16 L28,20 L28,20 Z M22,28 L8,28 L8,24 L22,24 L22,28 L22,28 Z" id="Shape"></path>
                </g>
            </g>
        </g>
    </g>
</svg>