<?xml version="1.0" encoding="UTF-8" standalone="no"?>
<svg width="40px" height="40px" viewBox="0 0 40 40" version="1.1" xmlns="http://www.w3.org/2000/svg" xmlns:xlink="http://www.w3.org/1999/xlink">
    <!-- Generator: sketchtool 40.1 (33804) - http://www.bohemiancoding.com/sketch -->
    <title>BE442D17-C1E5-4763-BD3D-102B341F942C</title>
    <desc>Created with sketchtool.</desc>
    <defs></defs>
    <g id="Atoms" stroke="none" stroke-width="1" fill="none" fill-rule="evenodd">
        <g id="Modelsheet-#1" transform="translate(-1049.000000, -1308.000000)" fill="#34495E">
            <g id="Content-Icons" transform="translate(135.000000, 1304.000000)">
                <g id="Download" transform="translate(914.000000, 4.000000)">
                    <path d="M20,0 C8.955,0 0,8.955 0,20 C0,31.045 8.955,40 20,40 C31.045,40 40,31.045 40,20 C40,8.955 31.045,0 20,0 L20,0 Z M23.3333333,15 L16.6666667,15 L16.6666667,13.3333333 L23.3333333,13.3333333 L23.3333333,15 L23.3333333,15 Z M23.3333333,10 L23.3333333,11.6666667 L16.6666667,11.6666667 L16.6666667,10 L23.3333333,10 L23.3333333,10 Z M20,31.6666667 L10,21.6666667 L16.6666667,21.6666667 L16.6666667,16.6666667 L23.3333333,16.6666667 L23.3333333,21.6666667 L30,21.6666667 L20,31.6666667 L20,31.6666667 Z" id="Shape"></path>
                </g>
            </g>
        </g>
    </g>
</svg>