<?xml version="1.0" encoding="UTF-8" standalone="no"?>
<svg width="37px" height="36px" viewBox="0 0 37 36" version="1.1" xmlns="http://www.w3.org/2000/svg" xmlns:xlink="http://www.w3.org/1999/xlink">
    <!-- Generator: sketchtool 40.1 (33804) - http://www.bohemiancoding.com/sketch -->
    <title>932BD54E-9B73-4D15-9D6E-F2341BCE9676</title>
    <desc>Created with sketchtool.</desc>
    <defs></defs>
    <g id="Atoms" stroke="none" stroke-width="1" fill="none" fill-rule="evenodd">
        <g id="Modelsheet-#1" transform="translate(-354.000000, -1013.000000)" fill="#34495E">
            <g id="Document-Type" transform="translate(135.000000, 950.000000)">
                <g id="Drawing" transform="translate(219.363636, 63.000000)">
                    <path d="M32,0 L4,0 C1.8,0 0,1.8 0,4 L0,32 C0,34.2 1.8,36 4,36 L32,36 C34.2,36 36,34.2 36,32 L36,4 C36,1.8 34.2,0 32,0 L32,0 Z M30,30 L18,30 L18,18.4 C16.6,19.6 15,20.4 13,20.4 C9,20.4 5.6,17 5.6,13 C5.6,9 9,5.6 13,5.6 C17,5.6 20.4,9 20.4,13 C20.4,15 19.6,16.6 18.4,18 L30,18 L30,30 L30,30 Z" id="Shape"></path>
                </g>
            </g>
        </g>
    </g>
</svg>