<?xml version="1.0" encoding="UTF-8" standalone="no"?>
<svg width="40px" height="40px" viewBox="0 0 40 40" version="1.1" xmlns="http://www.w3.org/2000/svg" xmlns:xlink="http://www.w3.org/1999/xlink">
    <!-- Generator: sketchtool 40.1 (33804) - http://www.bohemiancoding.com/sketch -->
    <title>490DDE4E-23F1-4215-B066-7D421D8D6BA8</title>
    <desc>Created with sketchtool.</desc>
    <defs></defs>
    <g id="Atoms" stroke="none" stroke-width="1" fill="none" fill-rule="evenodd">
        <g id="Modelsheet-#1" transform="translate(-748.000000, -1765.000000)" fill="#34495E">
            <g id="Content-Icons" transform="translate(135.000000, 1304.000000)">
                <g id="Emoticon" transform="translate(613.000000, 461.000000)">
                    <path d="M20,3.33333333 C29.19,3.33333333 36.6666667,10.81 36.6666667,20 C36.6666667,29.19 29.19,36.6666667 20,36.6666667 C10.81,36.6666667 3.33333333,29.19 3.33333333,20 C3.33333333,10.81 10.81,3.33333333 20,3.33333333 L20,3.33333333 Z M20,0 C8.955,0 0,8.955 0,20 C0,31.045 8.955,40 20,40 C31.045,40 40,31.045 40,20 C40,8.955 31.045,0 20,0 L20,0 Z M29.1783333,23.235 C26.6583333,25.2266667 23.8883333,26.4533333 20.0016667,26.4533333 C16.1116667,26.4533333 13.3416667,25.2266667 10.8216667,23.235 L10,24.0566667 C11.8783333,26.9233333 15.3333333,30 20.0016667,30 C24.6683333,30 28.1216667,26.9233333 30,24.0566667 L29.1783333,23.235 L29.1783333,23.235 Z M14.1666667,13.3333333 C12.7866667,13.3333333 11.6666667,14.4516667 11.6666667,15.8333333 C11.6666667,17.215 12.7866667,18.3333333 14.1666667,18.3333333 C15.5466667,18.3333333 16.6666667,17.215 16.6666667,15.8333333 C16.6666667,14.4516667 15.5466667,13.3333333 14.1666667,13.3333333 L14.1666667,13.3333333 Z M25.8333333,13.3333333 C24.4533333,13.3333333 23.3333333,14.4516667 23.3333333,15.8333333 C23.3333333,17.215 24.4533333,18.3333333 25.8333333,18.3333333 C27.2133333,18.3333333 28.3333333,17.215 28.3333333,15.8333333 C28.3333333,14.4516667 27.2133333,13.3333333 25.8333333,13.3333333 L25.8333333,13.3333333 Z" id="Shape"></path>
                </g>
            </g>
        </g>
    </g>
</svg>