<?xml version="1.0" encoding="UTF-8" standalone="no"?>
<svg width="37px" height="36px" viewBox="0 0 37 36" version="1.1" xmlns="http://www.w3.org/2000/svg" xmlns:xlink="http://www.w3.org/1999/xlink">
    <!-- Generator: sketchtool 40.1 (33804) - http://www.bohemiancoding.com/sketch -->
    <title>E2D232E2-D70E-4E88-A2DE-CC5B612D0525</title>
    <desc>Created with sketchtool.</desc>
    <defs></defs>
    <g id="Atoms" stroke="none" stroke-width="1" fill="none" fill-rule="evenodd">
        <g id="Modelsheet-#1" transform="translate(-1151.000000, -1017.000000)" fill="#34495E">
            <g id="Document-Type" transform="translate(135.000000, 950.000000)">
                <g id="Excel" transform="translate(1016.818182, 67.000000)">
                    <path d="M32,0 L4,0 C1.8,0 0,1.8 0,4 L0,32 C0,34.2 1.8,36 4,36 L32,36 C34.2,36 36,34.2 36,32 L36,4 C36,1.8 34.2,0 32,0 L32,0 Z M26.4,28 L22.4,28 L18,20.4 L13.6,28 L9.6,28 L16,18 L9.6,8 L13.6,8 L18,15.6 L22.4,8 L26.4,8 L20,18 L26.4,28 L26.4,28 Z" id="Shape"></path>
                </g>
            </g>
        </g>
    </g>
</svg>