<?xml version="1.0" encoding="UTF-8" standalone="no"?>
<svg width="37px" height="36px" viewBox="0 0 37 36" version="1.1" xmlns="http://www.w3.org/2000/svg" xmlns:xlink="http://www.w3.org/1999/xlink">
    <!-- Generator: sketchtool 40.1 (33804) - http://www.bohemiancoding.com/sketch -->
    <title>33B09ADF-CBB3-4002-A27D-A587BC45F2F0</title>
    <desc>Created with sketchtool.</desc>
    <defs></defs>
    <g id="Atoms" stroke="none" stroke-width="1" fill="none" fill-rule="evenodd">
        <g id="Modelsheet-#1" transform="translate(-1052.000000, -1017.000000)" fill="#34495E">
            <g id="Document-Type" transform="translate(135.000000, 950.000000)">
                <g id="Form" transform="translate(917.636364, 67.000000)">
                    <path d="M32,0 L4,0 C1.8,0 0,1.8 0,4 L0,32 C0,34.2 1.8,36 4,36 L32,36 C34.2,36 36,34.2 36,32 L36,4 C36,1.8 34.2,0 32,0 L32,0 Z M12,28 L8,28 L8,24 L12,24 L12,28 L12,28 Z M12,20 L8,20 L8,16 L12,16 L12,20 L12,20 Z M12,12 L8,12 L8,8 L12,8 L12,12 L12,12 Z M28,28 L14,28 L14,24 L28,24 L28,28 L28,28 Z M28,20 L14,20 L14,16 L28,16 L28,20 L28,20 Z M28,12 L14,12 L14,8 L28,8 L28,12 L28,12 Z" id="Shape"></path>
                </g>
            </g>
        </g>
    </g>
</svg>