<?xml version="1.0" encoding="UTF-8" standalone="no"?>
<svg width="40px" height="40px" viewBox="0 0 40 40" version="1.1" xmlns="http://www.w3.org/2000/svg" xmlns:xlink="http://www.w3.org/1999/xlink">
    <!-- Generator: sketchtool 40.1 (33804) - http://www.bohemiancoding.com/sketch -->
    <title>E38AC6AA-79D7-4E8A-BCC7-80D5E789CAC9</title>
    <desc>Created with sketchtool.</desc>
    <defs></defs>
    <g id="Atoms" stroke="none" stroke-width="1" fill="none" fill-rule="evenodd">
        <g id="Modelsheet-#1" transform="translate(-651.000000, -1765.000000)" fill="#34495E">
            <g id="Content-Icons" transform="translate(135.000000, 1304.000000)">
                <g id="Info" transform="translate(516.000000, 461.000000)">
                    <path d="M20,3.33333333 C29.19,3.33333333 36.6666667,10.81 36.6666667,20 C36.6666667,29.19 29.19,36.6666667 20,36.6666667 C10.81,36.6666667 3.33333333,29.19 3.33333333,20 C3.33333333,10.81 10.81,3.33333333 20,3.33333333 L20,3.33333333 Z M20,0 C8.955,0 0,8.955 0,20 C0,31.045 8.955,40 20,40 C31.045,40 40,31.045 40,20 C40,8.955 31.045,0 20,0 L20,0 Z M21.6666667,30 L18.3333333,30 L18.3333333,16.6666667 L21.6666667,16.6666667 L21.6666667,30 L21.6666667,30 Z M20,9.58333333 C21.15,9.58333333 22.0833333,10.5166667 22.0833333,11.6666667 C22.0833333,12.8166667 21.15,13.75 20,13.75 C18.85,13.75 17.9166667,12.8166667 17.9166667,11.6666667 C17.9166667,10.5166667 18.85,9.58333333 20,9.58333333 L20,9.58333333 Z" id="Shape"></path>
                </g>
            </g>
        </g>
    </g>
</svg>