<svg viewBox="0 0 40 24" version="1.1" xmlns="http://www.w3.org/2000/svg" xmlns:xlink="http://www.w3.org/1999/xlink">
    <g id="Atoms" stroke="none" stroke-width="1">
        <g id="Modelsheet-#1" transform="translate(-1148.000000, -1234.000000)">
            <g id="Classroom-Controls" transform="translate(135.000000, 1168.000000)">
                <g id="Keyboard" transform="translate(1013.000000, 66.000000)">
                    <path d="M0,0 L0,24 L40,24 L40,0 L0,0 L0,0 Z M26.6666667,5.14285714 L30,5.14285714 L30,8.57142857 L26.6666667,8.57142857 L26.6666667,5.14285714 L26.6666667,5.14285714 Z M21.6666667,5.14285714 L25,5.14285714 L25,8.57142857 L21.6666667,8.57142857 L21.6666667,5.14285714 L21.6666667,5.14285714 Z M26.6666667,10.2857143 L26.6666667,13.7142857 L23.3333333,13.7142857 L23.3333333,10.2857143 L26.6666667,10.2857143 L26.6666667,10.2857143 Z M16.6666667,5.14285714 L20,5.14285714 L20,8.57142857 L16.6666667,8.57142857 L16.6666667,5.14285714 L16.6666667,5.14285714 Z M21.6666667,10.2857143 L21.6666667,13.7142857 L18.3333333,13.7142857 L18.3333333,10.2857143 L21.6666667,10.2857143 L21.6666667,10.2857143 Z M11.6666667,5.14285714 L15,5.14285714 L15,8.57142857 L11.6666667,8.57142857 L11.6666667,5.14285714 L11.6666667,5.14285714 Z M16.6666667,10.2857143 L16.6666667,13.7142857 L13.3333333,13.7142857 L13.3333333,10.2857143 L16.6666667,10.2857143 L16.6666667,10.2857143 Z M5,5.14285714 L10,5.14285714 L10,8.57142857 L5,8.57142857 L5,5.14285714 L5,5.14285714 Z M5,10.2857143 L11.6666667,10.2857143 L11.6666667,13.7142857 L5,13.7142857 L5,10.2857143 L5,10.2857143 Z M28.3333333,18.8571429 L11.6666667,18.8571429 L11.6666667,15.4285714 L28.3333333,15.4285714 L28.3333333,18.8571429 L28.3333333,18.8571429 Z M35,13.7142857 L28.3333333,13.7142857 L28.3333333,10.2857143 L35,10.2857143 L35,13.7142857 L35,13.7142857 Z M35,8.57142857 L31.6666667,8.57142857 L31.6666667,5.14285714 L35,5.14285714 L35,8.57142857 L35,8.57142857 Z" id="Shape"></path>
                </g>
            </g>
        </g>
    </g>
</svg>
