<?xml version="1.0" encoding="UTF-8" standalone="no"?>
<svg width="40px" height="30px" viewBox="0 0 40 30" version="1.1" xmlns="http://www.w3.org/2000/svg" xmlns:xlink="http://www.w3.org/1999/xlink">
    <!-- Generator: sketchtool 40.1 (33804) - http://www.bohemiancoding.com/sketch -->
    <title>14EE94DF-F99A-4B09-85AF-496254BEA2E2</title>
    <desc>Created with sketchtool.</desc>
    <defs></defs>
    <g id="Atoms" stroke="none" stroke-width="1" fill="none" fill-rule="evenodd">
        <g id="Modelsheet-#1" transform="translate(-451.000000, -1770.000000)" fill="#34495E">
            <g id="Content-Icons" transform="translate(135.000000, 1304.000000)">
                <g id="Library" transform="translate(316.000000, 466.000000)">
                    <path d="M32.465,11.82 C32.1116667,5.235 26.6766667,0 20,0 C13.3233333,0 7.88833333,5.235 7.535,11.82 C3.25166667,12.5916667 0,16.33 0,20.8333333 C0,25.895 4.105,30 9.16666667,30 L30.8333333,30 C35.895,30 40,25.895 40,20.8333333 C40,16.33 36.7483333,12.5916667 32.465,11.82 L32.465,11.82 Z M18.7116667,23.185 C16.8533333,20.9983333 15.6133333,19.605 13.3333333,17.49 L14.475,16.4366667 C15.8083333,17.0816667 16.655,17.5733333 18.1533333,18.6416667 C20.9716667,15.4433333 22.835,13.82 26.295,11.6666667 L26.6666667,12.5216667 C23.8116667,15.0116667 21.72,17.7866667 18.7116667,23.185 L18.7116667,23.185 Z" id="Shape"></path>
                </g>
            </g>
        </g>
    </g>
</svg>