<?xml version="1.0" encoding="UTF-8" standalone="no"?>
<svg viewBox="0 0 40 31" version="1.1" xmlns="http://www.w3.org/2000/svg" xmlns:xlink="http://www.w3.org/1999/xlink">
    <!-- Generator: sketchtool 40.1 (33804) - http://www.bohemiancoding.com/sketch -->
    <title>68B3F2D6-3274-43B6-B7C7-E9EEB4F3514F</title>
    <desc>Created with sketchtool.</desc>
    <defs></defs>
    <g id="Atoms" stroke="none" stroke-width="1" >
        <g id="Modelsheet-#1" transform="translate(-748.000000, -1614.000000)" >
            <g id="Basic-Icons" transform="translate(135.000000, 1546.000000)">
                <g id="Loading" transform="translate(613.000000, 68.000000)">
                    <path d="M15,15.5 L7.56166667,24.0577222 L0,15.5 L5,15.5 C5,6.94055556 11.7166667,0 20,0 C23.9916667,0 27.6083333,1.62233333 30.2983333,4.25044444 L26.9583333,8.09272222 C25.1566667,6.28438889 22.7033333,5.16666667 20,5.16666667 C14.485,5.16666667 10,9.80116667 10,15.5 L15,15.5 L15,15.5 Z M32.4383333,6.94227778 L25,15.5 L30,15.5 C30,21.1988333 25.515,25.8333333 20,25.8333333 C17.295,25.8333333 14.8433333,24.7138889 13.0416667,22.9072778 L9.70166667,26.7495556 C12.39,29.3776667 16.0083333,31 20,31 C28.2833333,31 35,24.0594444 35,15.5 L40,15.5 L32.4383333,6.94227778 L32.4383333,6.94227778 Z" id="Shape"></path>
                </g>
            </g>
        </g>
    </g>
</svg>
