<?xml version="1.0" encoding="UTF-8" standalone="no"?>
<svg viewBox="0 0 29 40" version="1.1" xmlns="http://www.w3.org/2000/svg" xmlns:xlink="http://www.w3.org/1999/xlink">
    <g id="Atoms" stroke="none" stroke-width="1" >
        <g id="Modelsheet-#1" transform="translate(-753.000000, -1230.000000)" >
            <g id="Classroom-Controls" transform="translate(135.000000, 1168.000000)">
                <g id="Mic" transform="translate(618.000000, 62.000000)">
                    <path d="M21.75,16.6666667 C21.75,20.3483333 18.5038125,23.3333333 14.5,23.3333333 C10.4961875,23.3333333 7.25,20.3483333 7.25,16.6666667 L7.25,6.66666667 C7.25,2.985 10.4961875,0 14.5,0 C18.5038125,0 21.75,2.985 21.75,6.66666667 L21.75,16.6666667 L21.75,16.6666667 Z M29,13.3333333 L29,16.6666667 C29,24.03 22.507625,30 14.5,30 C6.492375,30 0,24.03 0,16.6666667 L0,13.3333333 L3.625,13.3333333 L3.625,16.6666667 C3.625,22.1816667 8.5024375,26.6666667 14.5,26.6666667 C20.4975625,26.6666667 25.375,22.1816667 25.375,16.6666667 L25.375,13.3333333 L29,13.3333333 L29,13.3333333 Z M16.3125,35.05 L16.3125,31.6666667 L12.6875,31.6666667 L12.6875,35.05 C8.551375,35.2816667 5.4375,36.29 5.4375,37.5 C5.4375,38.8816667 9.493875,40 14.5,40 C19.506125,40 23.5625,38.8816667 23.5625,37.5 C23.5625,36.29 20.448625,35.2816667 16.3125,35.05 L16.3125,35.05 Z" id="Shape"></path>
                </g>
            </g>
        </g>
    </g>
</svg>
