<?xml version="1.0" encoding="UTF-8" standalone="no"?>
<svg width="31px" height="40px" viewBox="0 0 31 40" version="1.1" xmlns="http://www.w3.org/2000/svg" xmlns:xlink="http://www.w3.org/1999/xlink">
    <!-- Generator: sketchtool 40.1 (33804) - http://www.bohemiancoding.com/sketch -->
    <title>F4B4D40C-51BB-4B61-97C5-3CED3034D5EB</title>
    <desc>Created with sketchtool.</desc>
    <defs></defs>
    <g id="Atoms" stroke="none" stroke-width="1" fill="none" fill-rule="evenodd">
        <g id="Modelsheet-#1" transform="translate(-255.000000, -1765.000000)" fill="#34495E">
            <g id="Content-Icons" transform="translate(135.000000, 1304.000000)">
                <g id="Mouse" transform="translate(120.000000, 461.000000)">
                    <path d="M31,24.425 L21.0128333,25.9383333 L26.8563333,37.4666667 L21.4985,40 L15.6205556,28.3633333 L8.61111111,34.4483333 L8.61111111,8.02 L31,24.425 L31,24.425 Z M5.16666667,14.0716667 C3.11722222,12.9166667 1.72222222,10.79 1.72222222,8.33333333 C1.72222222,4.65666667 4.81188889,1.66666667 8.61111111,1.66666667 C12.4602778,1.66666667 15.7824444,4.79166667 15.4466111,8.84833333 L17.0448333,10.02 C18.1418889,4.875 14.0912222,0 8.61111111,0 C3.85605556,0 0,3.73166667 0,8.33333333 C0,11.7483333 2.12866667,14.6766667 5.16666667,15.9633333 L5.16666667,14.0716667 L5.16666667,14.0716667 Z" id="Shape"></path>
                </g>
            </g>
        </g>
    </g>
</svg>