<?xml version="1.0" encoding="UTF-8" standalone="no"?>
<svg viewBox="0 0 38 40" version="1.1" xmlns="http://www.w3.org/2000/svg" xmlns:xlink="http://www.w3.org/1999/xlink">
    <g id="Atoms" stroke="none" stroke-width="1" >
        <g id="Modelsheet-#1" transform="translate(-848.000000, -1230.000000)" >
            <g id="Classroom-Controls" transform="translate(135.000000, 1168.000000)">
                <g id="Muted" transform="translate(713.000000, 62.000000)">
                    <path d="M14.0059446,20.7995818 C13.0525891,19.663472 12.4834072,18.2276911 12.4834072,16.6666667 L12.4834072,6.66666667 C12.4834072,2.985 15.6494778,0 19.554475,0 C23.4594722,0 26.6255428,2.985 26.6255428,6.66666667 L26.6255428,8.17998352 L14.0059446,20.7995818 Z M17.0192178,29.7863086 C17.8417535,29.9266938 18.6890409,30 19.554475,30 C27.3644694,30 33.6966107,24.03 33.6966107,16.6666667 L33.6966107,13.3333333 L33.472193,13.3333333 L30.1610768,16.6444496 L30.1610768,16.6666667 C30.1610768,21.9917754 25.7259643,26.3565925 20.1546702,26.6508562 L17.0192178,29.7863086 Z M9.1294931,25.6760333 C6.82120898,23.3031332 5.41233941,20.1399048 5.41233941,16.6666667 L5.41233941,13.3333333 L8.94787332,13.3333333 L8.94787332,16.6666667 C8.94787332,19.1806575 9.93636962,21.4806188 11.5662429,23.2392835 L9.1294931,25.6760333 Z M21.322242,35.05 L21.322242,31.6666667 L17.7867081,31.6666667 L17.7867081,35.05 C13.7526639,35.2816667 10.7156403,36.29 10.7156403,37.5 C10.7156403,38.8816667 14.6719027,40 19.554475,40 C24.4370474,40 28.3933098,38.8816667 28.3933098,37.5 C28.3933098,36.29 25.3562862,35.2816667 21.322242,35.05 Z M35.1725933,3.55298179 L37.1725933,5.55298179 L2.82740674,39.8981683 L0.827406743,37.8981683 L35.1725933,3.55298179 Z" id="Combined-Shape"></path>
                </g>
            </g>
        </g>
    </g>
</svg>
