<?xml version="1.0" encoding="iso-8859-1"?>
<!-- Generator: Adobe Illustrator 15.0.0, SVG Export Plug-In  -->
<svg version="1.1"
	 xmlns="http://www.w3.org/2000/svg" xmlns:xlink="http://www.w3.org/1999/xlink" xmlns:a="http://ns.adobe.com/AdobeSVGViewerExtensions/3.0/"
	 x="0px" y="0px" width="3060px" height="1104px" viewBox="-14.29 -14.767 3060 1104"
	 style="overflow:visible;enable-background:new -14.29 -14.767 3060 1104;" xml:space="preserve">
<defs>
</defs>
<path style="fill:#FFF;" d="M2779.044,852.454c4.928,79.26,38.683,128.77,119,130
	c23.124,0.354,43.57-2.035,64-7c19.082-4.638,37.308-12.266,57-13c2.325,31.675,0.34,67.66,1,101
	c-76.245,21.21-181.291,22.492-243-9c-62.306-31.796-100.239-91.605-105-178c-133.723,4.99-231.312-39.699-295-113
	c-62.941-72.441-102.002-179.349-102-305c0.002-141.458,26.393-242.442,85-323c42.561-58.501,102.131-102.63,183-123
	c28.006-7.054,60.514-10.465,93-12c118.246-5.587,207.155,41.157,267,101c62.268,62.266,98.262,150.276,110,258
	C3039.995,606.787,2952.728,791.211,2779.044,852.454z M2400.044,325.454c-27.203,139.223-0.915,290.672,60,367
	c45.568,57.099,113.979,93.846,210,86c171.161-13.985,238.66-171.479,231-363c-7.292-182.309-80.766-331.657-279-317
	C2488.037,108.362,2423.711,204.329,2400.044,325.454z"/>
<path style="fill:#FFF;" d="M1101.044,12.454c39.667,0,79.333,0,119,0
	c2.326,34.34,0.339,72.995,1,109c-38.339,2.328-80.996,0.337-121,1c0-35.667,0-71.333,0-107
	C1099.958,14.035,1099.878,12.622,1101.044,12.454z"/>
<path style="fill:#FFF;" d="M1.044,18.454c37.667,0,75.333,0,113,0
	c56.698,231.643,112.847,463.812,169,696c58.172-230.168,111.94-464.72,169-696c37.667,0,75.333,0,113,0
	c56.697,233.637,113.323,467.345,169,702c58.793-231.54,112.693-467.975,169-702c36.667,0,73.333,0,110,0
	c-70.362,279.968-140.951,559.727-211,840c-42,0-84,0-126,0c-57.319-231.342-113.399-463.948-171-695
	c-56.735,230.595-111.052,463.621-167,695c-41,0-82,0-123,0c-72.326-278.345-142.713-558.611-215-837
	C-0.042,20.035-0.121,18.622,1.044,18.454z"/>
<path style="fill:#FFF;" d="M1860.044,18.454c107.667,0,215.332,0,323,0
	c0,28.667,0,57.333,0,86c-35.334,0-70.666,0-106,0c-2.333,220.338-0.333,444.994-1,667c33.667,2.333,71.666,0.334,107,1
	c0,28.667,0,57.333,0,86c-108.001-0.666-218.665,1.332-325-1c0.658-28.009-1.322-58.655,1-85c35,0,70,0,105,0
	c2.333-220.666,0.334-445.669,1-668c-35.339-0.661-73.326,1.326-107-1c0-27.333,0-54.667,0-82
	C1857.999,19.743,1858.788,18.863,1860.044,18.454z"/>
<path style="fill:#FFF;" d="M1108.044,227.454c35,0,70,0,105,0c0,210.331,0,420.669,0,631
	c-35.333,0-70.667,0-106,0c0-209.332,0-418.669,0-628C1106.958,229.035,1106.878,227.622,1108.044,227.454z"/>
<path style="fill:#FFF;" d="M1334.044,227.454c147.668,0,295.33,0,443,0
	c-3.589,22.051,4.771,50.555,0,74c-1.645,8.078-13.23,20.435-20,30c-103.947,146.866-207.405,290.935-310,438
	c111.999,0,224.002,0,336,0c0,29.667,0,59.333,0,89c-154.334,0-308.664,0-463,0c4.085-23.213-5.432-53.45,0-78
	c1.644-7.431,13.435-20.889,20-30c104.441-144.949,205.064-289.772,308-435c-105,0-210,0-315,0c0-28.333,0-56.667,0-85
	C1332.958,229.035,1332.878,227.622,1334.044,227.454z"/>
</svg>
