<?xml version="1.0" encoding="UTF-8" standalone="no"?>
<svg width="34px" height="40px" viewBox="0 0 34 40" version="1.1" xmlns="http://www.w3.org/2000/svg" xmlns:xlink="http://www.w3.org/1999/xlink">
    <!-- Generator: sketchtool 40.1 (33804) - http://www.bohemiancoding.com/sketch -->
    <title>EF8B93D8-3416-4511-86BD-D92C84EF9F90</title>
    <desc>Created with sketchtool.</desc>
    <defs></defs>
    <g id="Atoms" stroke="none" stroke-width="1" fill="none" fill-rule="evenodd">
        <g id="Modelsheet-#1" transform="translate(-953.000000, -1765.000000)" fill="#34495E">
            <g id="Content-Icons" transform="translate(135.000000, 1304.000000)">
                <g id="Notifications" transform="translate(818.000000, 461.000000)">
                    <path d="M22.3329,6.575 C21.2381,5.95166667 20.5615,4.79166667 20.5632,3.54166667 L20.5632,3.53666667 C20.5649,1.58333333 18.9686,0 17,0 C15.0314,0 13.4351,1.58333333 13.4351,3.53666667 L13.4351,3.54166667 C13.4368,4.79333333 12.7619,5.95166667 11.6654,6.575 C3.7315,11.095 8.2909,26.1 0,28.7516667 L0,31.6666667 L34,31.6666667 L34,28.7516667 C25.7091,26.1 30.2685,11.095 22.3329,6.575 L22.3329,6.575 Z M17,1.66666667 C17.9384,1.66666667 18.7,2.415 18.7,3.33333333 C18.7,4.25333333 17.9384,5 17,5 C16.0616,5 15.3,4.25333333 15.3,3.33333333 C15.3,2.415 16.0616,1.66666667 17,1.66666667 L17,1.66666667 Z M22.1,35 C22.1,37.6633333 19.7336,40 17.0493,40 C14.365,40 11.9,37.6633333 11.9,35 L22.1,35 L22.1,35 Z" id="Shape"></path>
                </g>
            </g>
        </g>
    </g>
</svg>