<?xml version="1.0" encoding="UTF-8" standalone="no"?>
<svg width="37px" height="36px" viewBox="0 0 37 36" version="1.1" xmlns="http://www.w3.org/2000/svg" xmlns:xlink="http://www.w3.org/1999/xlink">
    <!-- Generator: sketchtool 40.1 (33804) - http://www.bohemiancoding.com/sketch -->
    <title>FB848AE9-2E63-4275-BEEB-35DC0B99BB8B</title>
    <desc>Created with sketchtool.</desc>
    <defs></defs>
    <g id="Atoms" stroke="none" stroke-width="1" fill="none" fill-rule="evenodd">
        <g id="Modelsheet-#1" transform="translate(-453.000000, -1013.000000)" fill="#34495E">
            <g id="Document-Type" transform="translate(135.000000, 950.000000)">
                <g id="PDF" transform="translate(318.545455, 63.000000)">
                    <path d="M16.6,11.2 L16.6,11.2 L16.6,11.2 C16.8,10.4 17,10 17,9.4 L17,9 C17.2,8 17.2,7.2 17,7 C17,7 17,7 17,6.8 L16.8,6.6 L16.8,6.6 C16.8,6.6 16.8,6.8 16.6,6.8 C16.2,8 16.2,9.4 16.6,11.2 L16.6,11.2 L16.6,11.2 Z M10.6,25 C10.2,25.2 9.8,25.4 9.6,25.6 C8.2,26.8 7.2,28.2 7,28.8 L7,28.8 C8.2,28.6 9.4,27.4 10.6,25 L10.6,25 L10.6,25 L10.6,25 Z M29,22 C28.8,21.8 28,21.2 25.2,21.2 L24.8,21.2 L24.8,21.2 C24.8,21.2 24.8,21.2 24.8,21.4 C26.2,22 27.6,22.4 28.6,22.4 L29,22.4 L29,22.4 L29.2,22.4 C29.2,22.4 29.2,22.4 29.2,22.2 L29.2,22.2 C29.2,22.2 29,22.2 29,22 L29,22 Z M32,0 L4,0 C1.8,0 0,1.8 0,4 L0,32 C0,34.2 1.8,36 4,36 L32,36 C34.2,36 36,34.2 36,32 L36,4 C36,1.8 34.2,0 32,0 L32,0 Z M29.8,23.6 C29.4,23.8 28.8,24 28,24 C26.4,24 24,23.6 22,22.6 C18.6,23 16,23.4 14,24.2 C13.8,24.2 13.8,24.2 13.6,24.4 C11.2,28.6 9.2,30.6 7.6,30.6 C7.2,30.6 7,30.6 6.8,30.4 L5.8,29.8 L5.8,29.6 C5.6,29.2 5.6,29 5.6,28.6 C5.8,27.6 7,25.8 9.4,24.4 C9.8,24.2 10.4,23.8 11.2,23.4 C11.8,22.4 12.4,21.2 13.2,19.8 C14.2,17.8 14.8,15.8 15.4,14 L15.4,14 C14.6,11.6 14.2,10.2 15,7.4 C15.2,6.6 15.8,5.8 16.6,5.8 L17,5.8 C17.4,5.8 17.8,6 18.2,6.2 C19.6,7.6 19,10.8 18.2,13.4 L18.2,13.6 C19,15.8 20.2,17.6 21.4,18.8 C22,19.2 22.4,19.6 23.2,20 C24.2,20 25,19.8 25.8,19.8 C28.2,19.8 29.8,20.2 30.4,21.2 C30.6,21.6 30.6,22 30.6,22.4 C30.4,22.6 30.2,23.2 29.8,23.6 L29.8,23.6 Z M16.8,15.8 C16.4,17.2 15.6,18.8 14.8,20.6 C14.4,21.4 14,22 13.6,22.8 L13.8,22.8 L14,22.8 C16.6,21.8 19,21.2 20.6,21 C20.2,20.8 20,20.6 19.8,20.4 C18.8,19.2 17.6,17.6 16.8,15.8 L16.8,15.8 Z" id="Shape"></path>
                </g>
            </g>
        </g>
    </g>
</svg>