<?xml version="1.0" encoding="UTF-8" standalone="no"?>
<svg width="40px" height="40px" viewBox="0 0 40 40" version="1.1" xmlns="http://www.w3.org/2000/svg" xmlns:xlink="http://www.w3.org/1999/xlink">
    <!-- Generator: sketchtool 40.1 (33804) - http://www.bohemiancoding.com/sketch -->
    <title>427DEB75-3CE6-41F6-82F3-8EBBAD3FCB61</title>
    <desc>Created with sketchtool.</desc>
    <defs></defs>
    <g id="Atoms" stroke="none" stroke-width="1" fill="none" fill-rule="evenodd">
        <g id="Modelsheet-#1" transform="translate(-651.000000, -1304.000000)" fill="#34495E">
            <g id="Content-Icons" transform="translate(135.000000, 1304.000000)">
                <g id="Pause" transform="translate(516.000000, 0.000000)">
                    <path d="M20,3.33333333 C29.19,3.33333333 36.6666667,10.81 36.6666667,20 C36.6666667,29.19 29.19,36.6666667 20,36.6666667 C10.81,36.6666667 3.33333333,29.19 3.33333333,20 C3.33333333,10.81 10.81,3.33333333 20,3.33333333 L20,3.33333333 Z M20,0 C8.955,0 0,8.955 0,20 C0,31.045 8.955,40 20,40 C31.045,40 40,31.045 40,20 C40,8.955 31.045,0 20,0 L20,0 Z M17.8333333,30.4166667 L14.5,30.4166667 L14.5,10 L17.8333333,10 L17.8333333,30.4166667 L17.8333333,30.4166667 Z M25.4333089,30.4166667 L22.0999756,30.4166667 L22.0999756,10 L25.4333089,10 L25.4333089,30.4166667 L25.4333089,30.4166667 Z" id="Shape"></path>
                </g>
            </g>
        </g>
    </g>
</svg>