<?xml version="1.0" encoding="UTF-8" standalone="no"?>
<svg width="36px" height="36px" viewBox="0 0 36 36" version="1.1" xmlns="http://www.w3.org/2000/svg" xmlns:xlink="http://www.w3.org/1999/xlink">
    <!-- Generator: sketchtool 40.1 (33804) - http://www.bohemiancoding.com/sketch -->
    <title>096E11A7-6A93-41C0-85FE-5E289B176A07</title>
    <desc>Created with sketchtool.</desc>
    <defs></defs>
    <g id="Atoms" stroke="none" stroke-width="1" fill="none" fill-rule="evenodd">
        <g id="Modelsheet-#1" transform="translate(-252.000000, -1088.000000)" fill="#34495E">
            <g id="Document-Type" transform="translate(135.000000, 950.000000)">
                <g id="Powerpoint" transform="translate(117.000000, 138.000000)">
                    <path d="M32,0 L4,0 C1.8,0 0,1.8 0,4 L0,32 C0,34.2 1.8,36 4,36 L32,36 C34.2,36 36,34.2 36,32 L36,4 C36,1.8 34.2,0 32,0 L32,0 Z M13.6,20.8 L13.6,28 L10,28 L10,8 L18.6,8 C21.6,8 23,8.6 24.2,9.8 C25.6,11 26,12.6 26,14.4 C26,16.4 25.4,18 24.2,19 C23,20 21.6,20.6 18.6,20.6 L13.6,20.6 L13.6,20.8 Z" id="Shape"></path>
                    <path d="M14,18.2 L14,11 L18.6,11 C20,11 21,11.4 21.6,12.2 C22.2,13 22.6,13.6 22.6,14.6 C22.6,15.8 22.2,16.4 21.6,17.2 C21,17.8 20.2,18.2 18.8,18.2 L14,18.2 L14,18.2 Z" id="Shape"></path>
                </g>
            </g>
        </g>
    </g>
</svg>