<?xml version="1.0" encoding="UTF-8" standalone="no"?>
<svg width="40px" height="36px" viewBox="0 0 40 36" version="1.1" xmlns="http://www.w3.org/2000/svg" xmlns:xlink="http://www.w3.org/1999/xlink">
    <!-- Generator: sketchtool 40.1 (33804) - http://www.bohemiancoding.com/sketch -->
    <title>EA958769-545A-48D8-8D87-35FA3844FEC6</title>
    <desc>Created with sketchtool.</desc>
    <defs></defs>
    <g id="Atoms" stroke="none" stroke-width="1" fill="none" fill-rule="evenodd">
        <g id="Modelsheet-#1" transform="translate(-1047.000000, -1767.000000)" fill="#34495E">
            <g id="Content-Icons" transform="translate(135.000000, 1304.000000)">
                <g id="Recording" transform="translate(912.000000, 463.000000)">
                    <path d="M36.6666667,0 L36.6666667,3.27272727 L33.3333333,3.27272727 L33.3333333,0 L30,0 L30,6.54545455 L10,6.54545455 L10,0 L6.66666667,0 L6.66666667,3.27272727 L3.33333333,3.27272727 L3.33333333,0 L0,0 L0,36 L3.33333333,36 L3.33333333,32.7272727 L6.66666667,32.7272727 L6.66666667,36 L10,36 L10,29.4545455 L30,29.4545455 L30,36 L33.3333333,36 L33.3333333,32.7272727 L36.6666667,32.7272727 L36.6666667,36 L40,36 L40,0 L36.6666667,0 L36.6666667,0 Z M6.66666667,29.4545455 L3.33333333,29.4545455 L3.33333333,26.1818182 L6.66666667,26.1818182 L6.66666667,29.4545455 L6.66666667,29.4545455 Z M6.66666667,22.9090909 L3.33333333,22.9090909 L3.33333333,19.6363636 L6.66666667,19.6363636 L6.66666667,22.9090909 L6.66666667,22.9090909 Z M6.66666667,16.3636364 L3.33333333,16.3636364 L3.33333333,13.0909091 L6.66666667,13.0909091 L6.66666667,16.3636364 L6.66666667,16.3636364 Z M6.66666667,9.81818182 L3.33333333,9.81818182 L3.33333333,6.54545455 L6.66666667,6.54545455 L6.66666667,9.81818182 L6.66666667,9.81818182 Z M30,24.5454545 L10,24.5454545 L10,11.4545455 L30,11.4545455 L30,24.5454545 L30,24.5454545 Z M36.6666667,29.4545455 L33.3333333,29.4545455 L33.3333333,26.1818182 L36.6666667,26.1818182 L36.6666667,29.4545455 L36.6666667,29.4545455 Z M36.6666667,22.9090909 L33.3333333,22.9090909 L33.3333333,19.6363636 L36.6666667,19.6363636 L36.6666667,22.9090909 L36.6666667,22.9090909 Z M36.6666667,16.3636364 L33.3333333,16.3636364 L33.3333333,13.0909091 L36.6666667,13.0909091 L36.6666667,16.3636364 L36.6666667,16.3636364 Z M36.6666667,9.81818182 L33.3333333,9.81818182 L33.3333333,6.54545455 L36.6666667,6.54545455 L36.6666667,9.81818182 L36.6666667,9.81818182 Z" id="Shape"></path>
                </g>
            </g>
        </g>
    </g>
</svg>