<?xml version="1.0" encoding="utf-8"?>
<svg version="1.1"
	 xmlns="http://www.w3.org/2000/svg" xmlns:xlink="http://www.w3.org/1999/xlink" xmlns:a="http://ns.adobe.com/AdobeSVGViewerExtensions/3.0/"
	 x="0px" y="0px" viewBox="-4 -0.756 339 118"
	 overflow="visible" enable-background="new -4 -0.756 339 118" xml:space="preserve">
<defs>
</defs>
<polyline fill="none" stroke-width="16" stroke-miterlimit="10" points="51.903,8 8,8 8,108.61 51.903,108.61 "/>
<polyline fill="none" stroke-width="16" stroke-miterlimit="10" points="109.293,8 153.196,8 153.196,108.61 
	109.293,108.61 "/>
<circle cx="81.439" cy="57.975" r="33.537"/>
<path d="M184.544,20.391h14.824c9.882,0,16.572,0.382,20.071,1.145c3.499,0.763,6.35,2.71,8.557,5.845
	c2.205,3.134,3.308,8.133,3.308,14.999c0,6.268-0.779,10.48-2.338,12.635c-1.56,2.157-4.626,3.45-9.203,3.88
	c4.146,1.028,6.932,2.404,8.357,4.129c1.426,1.724,2.313,3.307,2.661,4.75c0.35,1.443,0.522,5.415,0.522,11.915v21.241h-19.45
	V74.165c0-4.31-0.34-6.98-1.02-8.009c-0.68-1.027-2.462-1.542-5.348-1.542v36.313h-20.942V20.391z M205.486,34.171v17.908
	c2.354,0,4.004-0.324,4.95-0.971c0.945-0.646,1.417-2.744,1.417-6.292v-4.427c0-2.554-0.456-4.229-1.368-5.025
	C209.573,34.568,207.907,34.171,205.486,34.171z"/>
<path d="M239.412,20.391h34.921v16.118h-13.978V51.78h13.084v15.322h-13.084v17.708h15.371v16.118h-36.314V20.391z"/>
<path d="M330.645,55.461h-20.942V41.464c0-4.07-0.224-6.61-0.671-7.62c-0.449-1.008-1.436-1.514-2.96-1.514
	c-1.726,0-2.82,0.614-3.284,1.841c-0.465,1.227-0.696,3.879-0.696,7.959v37.408c0,3.914,0.231,6.467,0.696,7.661
	c0.464,1.194,1.51,1.791,3.135,1.791c1.558,0,2.578-0.598,3.059-1.795c0.481-1.196,0.722-4.006,0.722-8.428V68.644h20.942v3.139
	c0,8.336-0.588,14.248-1.766,17.734c-1.178,3.488-3.78,6.543-7.811,9.167c-4.029,2.623-8.995,3.936-14.898,3.936
	c-6.135,0-11.192-1.111-15.172-3.333c-3.979-2.221-6.617-5.297-7.91-9.227s-1.94-9.84-1.94-17.734v-23.53
	c0-5.802,0.199-10.155,0.599-13.058c0.396-2.9,1.582-5.695,3.557-8.381c1.973-2.687,4.708-4.801,8.208-6.343
	c3.498-1.542,7.52-2.313,12.063-2.313c6.167,0,11.258,1.193,15.271,3.578c4.012,2.385,6.649,5.358,7.909,8.917
	c1.261,3.561,1.891,9.099,1.891,16.616V55.461z"/>
</svg>
