<?xml version="1.0" encoding="UTF-8" standalone="no"?>
<svg width="37px" height="36px" viewBox="0 0 37 36" version="1.1" xmlns="http://www.w3.org/2000/svg" xmlns:xlink="http://www.w3.org/1999/xlink">
    <!-- Generator: sketchtool 40.1 (33804) - http://www.bohemiancoding.com/sketch -->
    <title>929FE859-441A-4297-81E3-6867F986A93B</title>
    <desc>Created with sketchtool.</desc>
    <defs></defs>
    <g id="Atoms" stroke="none" stroke-width="1" fill="none" fill-rule="evenodd">
        <g id="Modelsheet-#1" transform="translate(-751.000000, -1014.000000)" fill="#34495E">
            <g id="Document-Type" transform="translate(135.000000, 950.000000)">
                <g id="Script-Copy" transform="translate(616.090909, 64.000000)">
                    <path d="M32,0 L4,0 C1.8,0 0,1.8 0,4 L0,12 L0,24 L0,32 C0,34.2 1.8,36 4,36 L32,36 C34.2,36 36,34.2 36,32 L36,4 C36,1.8 34.2,0 32,0 L32,0 Z M16,28 L16,22 L4,22 L4,14 L16,14 L16,8 L26,18 L16,28 L16,28 Z" id="Shape"></path>
                </g>
            </g>
        </g>
    </g>
</svg>