<?xml version="1.0" encoding="UTF-8" standalone="no"?>
<svg width="38px" height="38px" viewBox="0 0 38 38" version="1.1" xmlns="http://www.w3.org/2000/svg" xmlns:xlink="http://www.w3.org/1999/xlink">
    <!-- Generator: sketchtool 40.1 (33804) - http://www.bohemiancoding.com/sketch -->
    <title>997DE660-7267-4B05-B3CB-EE18EA754977</title>
    <desc>Created with sketchtool.</desc>
    <defs></defs>
    <g id="Atoms" stroke="none" stroke-width="1" fill="none" fill-rule="evenodd">
        <g id="Modelsheet-#1" transform="translate(-1243.000000, -1610.000000)" fill="#34495E">
            <g id="Basic-Icons" transform="translate(135.000000, 1546.000000)">
                <g id="Search" transform="translate(1108.000000, 64.000000)">
                    <path d="M38,34.2728333 L28.0966021,24.44825 C29.9591751,21.907 31.0604393,18.7815 31.0604393,15.4058333 C31.0604393,6.91125 24.0937461,0 15.5294216,0 C6.96669327,0 0,6.91125 0,15.4058333 C0,23.902 6.96669327,30.8116667 15.5294216,30.8116667 C18.7757571,30.8116667 21.7906674,29.8189167 24.2868663,28.1231667 L34.2429333,38 L38,34.2728333 L38,34.2728333 Z M4.55508421,15.4058333 C4.55508421,9.40183333 9.47885253,4.51725 15.5310177,4.51725 C21.5831828,4.51725 26.5069512,9.40183333 26.5069512,15.4058333 C26.5069512,21.4098333 21.5831828,26.2944167 15.5310177,26.2944167 C9.4772565,26.2944167 4.55508421,21.4098333 4.55508421,15.4058333 L4.55508421,15.4058333 Z" id="Shape"></path>
                </g>
            </g>
        </g>
    </g>
</svg>