<?xml version="1.0" encoding="UTF-8" standalone="no"?>
<svg width="40px" height="40px" viewBox="0 0 40 40" version="1.1" xmlns="http://www.w3.org/2000/svg" xmlns:xlink="http://www.w3.org/1999/xlink">
    <!-- Generator: sketchtool 40.1 (33804) - http://www.bohemiancoding.com/sketch -->
    <title>6053B619-F7AD-4A9F-82AA-416508F33175</title>
    <desc>Created with sketchtool.</desc>
    <defs></defs>
    <g id="Atoms" stroke="none" stroke-width="1" fill="none" fill-rule="evenodd">
        <g id="Modelsheet-#1" transform="translate(-948.000000, -1306.000000)" fill="#34495E">
            <g id="Content-Icons" transform="translate(135.000000, 1304.000000)">
                <g id="Share" transform="translate(813.000000, 2.000000)">
                    <path d="M20,0 C8.955,0 0,8.955 0,20 C0,31.045 8.955,40 20,40 C31.045,40 40,31.045 40,20 C40,8.955 31.045,0 20,0 L20,0 Z M21.6666667,26.4816667 L21.6666667,22.7766667 C21.6666667,22.7766667 15.3666667,22.5866667 10,28.3316667 C12.5216667,17.3533333 21.6666667,15.3683333 21.6666667,15.3683333 L21.6666667,11.6666667 L30,19.0416667 L21.6666667,26.4816667 L21.6666667,26.4816667 Z" id="Shape"></path>
                </g>
            </g>
        </g>
    </g>
</svg>