<?xml version="1.0" encoding="UTF-8" standalone="no"?>
<svg width="41px" height="32px" viewBox="0 0 41 32" version="1.1" xmlns="http://www.w3.org/2000/svg" xmlns:xlink="http://www.w3.org/1999/xlink">
    <!-- Generator: sketchtool 40.1 (33804) - http://www.bohemiancoding.com/sketch -->
    <title>42F5E6A1-FE18-441F-8A01-AE5F81862EB5</title>
    <desc>Created with sketchtool.</desc>
    <defs></defs>
    <g id="Atoms" stroke="none" stroke-width="1" fill="none" fill-rule="evenodd">
        <g id="Modelsheet-#1" transform="translate(-251.000000, -1017.000000)" fill="#34495E">
            <g id="Document-Type" transform="translate(135.000000, 950.000000)">
                <g id="Shared" transform="translate(116.181818, 67.000000)">
                    <path d="M36,4 L20,4 L16,0 L4,0 C1.8,0 0,1.8 0,4 L0,28 C0,30.2 1.8,32 4,32 L36,32 C38.2,32 40,30.2 40,28 L40,8 C40,5.8 38.2,4 36,4 L36,4 Z M26,10 C28.2,10 30,11.8 30,14 C30,16.2 28.2,18 26,18 C23.8,18 22,16.2 22,14 C22,11.8 23.8,10 26,10 L26,10 Z M34,26 L18,26 L18,24 C18,21.4 23.4,20 26,20 C28.6,20 34,21.4 34,24 L34,26 L34,26 Z" id="Shape"></path>
                </g>
            </g>
        </g>
    </g>
</svg>