<?xml version="1.0" encoding="UTF-8" standalone="no"?>
<svg width="36px" height="36px" viewBox="0 0 36 36" version="1.1" xmlns="http://www.w3.org/2000/svg" xmlns:xlink="http://www.w3.org/1999/xlink">
    <!-- Generator: sketchtool 40.1 (33804) - http://www.bohemiancoding.com/sketch -->
    <title>0EDB2EBE-8144-4C19-A06B-D413696F2072</title>
    <desc>Created with sketchtool.</desc>
    <defs></defs>
    <g id="Atoms" stroke="none" stroke-width="1" fill="none" fill-rule="evenodd">
        <g id="Modelsheet-#1" transform="translate(-149.000000, -1088.000000)" fill="#34495E">
            <g id="Document-Type" transform="translate(135.000000, 950.000000)">
                <g id="Spreadsheet" transform="translate(14.000000, 138.000000)">
                    <path d="M32,0 L4,0 C1.8,0 0,1.8 0,4 L0,10 L0,32 C0,34.2 1.8,36 4,36 L32,36 C34.2,36 36,34.2 36,32 L36,4 C36,1.8 34.2,0 32,0 L32,0 Z M32,16 L16,16 L16,32 L12,32 L12,16 L4,16 L4,12 L12,12 L12,4 L16,4 L16,12 L32,12 L32,16 L32,16 Z" id="Shape"></path>
                </g>
            </g>
        </g>
    </g>
</svg>