<?xml version="1.0" encoding="UTF-8" standalone="no"?>
<svg width="35px" height="40px" viewBox="0 0 35 40" version="1.1" xmlns="http://www.w3.org/2000/svg" xmlns:xlink="http://www.w3.org/1999/xlink">
    <!-- Generator: sketchtool 40.1 (33804) - http://www.bohemiancoding.com/sketch -->
    <title>ED065DA5-C883-4E01-B1FB-1CD6AF1A7860</title>
    <desc>Created with sketchtool.</desc>
    <defs></defs>
    <g id="Atoms" stroke="none" stroke-width="1" fill="none" fill-rule="evenodd">
        <g id="Modelsheet-#1" transform="translate(-1149.000000, -1305.000000)" fill="#34495E">
            <g id="Content-Icons" transform="translate(135.000000, 1304.000000)">
                <g id="Trash" transform="translate(1014.000000, 1.000000)">
                    <path d="M1.75,10 L1.75,40 L33.25,40 L33.25,10 L1.75,10 L1.75,10 Z M10.5,33.3333333 C10.5,34.2533333 9.716,35 8.75,35 C7.784,35 7,34.2533333 7,33.3333333 L7,16.6666667 C7,15.7466667 7.784,15 8.75,15 C9.716,15 10.5,15.7466667 10.5,16.6666667 L10.5,33.3333333 L10.5,33.3333333 Z M19.25,33.3333333 C19.25,34.2533333 18.466,35 17.5,35 C16.534,35 15.75,34.2533333 15.75,33.3333333 L15.75,16.6666667 C15.75,15.7466667 16.534,15 17.5,15 C18.466,15 19.25,15.7466667 19.25,16.6666667 L19.25,33.3333333 L19.25,33.3333333 Z M28,33.3333333 C28,34.2533333 27.216,35 26.25,35 C25.284,35 24.5,34.2533333 24.5,33.3333333 L24.5,16.6666667 C24.5,15.7466667 25.284,15 26.25,15 C27.216,15 28,15.7466667 28,16.6666667 L28,33.3333333 L28,33.3333333 Z M35,3.33333333 L35,6.66666667 L0,6.66666667 L0,3.33333333 L9.99425,3.33333333 C11.56925,3.33333333 12.8485,1.50166667 12.8485,0 L22.14975,0 C22.14975,1.50166667 23.42725,3.33333333 25.004,3.33333333 L35,3.33333333 L35,3.33333333 Z" id="Shape"></path>
                </g>
            </g>
        </g>
    </g>
</svg>