<?xml version="1.0" encoding="UTF-8" standalone="no"?>
<svg width="40px" height="31px" viewBox="0 0 40 31" version="1.1" xmlns="http://www.w3.org/2000/svg" xmlns:xlink="http://www.w3.org/1999/xlink">
    <!-- Generator: sketchtool 40.1 (33804) - http://www.bohemiancoding.com/sketch -->
    <title>4D10CE9E-348C-484A-BE45-1A81745CC71A</title>
    <desc>Created with sketchtool.</desc>
    <defs></defs>
    <g id="Atoms" stroke="none" stroke-width="1" fill="none" fill-rule="evenodd">
        <g id="Modelsheet-#1" transform="translate(-549.000000, -1770.000000)" fill="#34495E">
            <g id="Content-Icons" transform="translate(135.000000, 1304.000000)">
                <g id="Upload" transform="translate(414.000000, 466.000000)">
                    <path d="M26.6666667,22.3888889 L21.6666667,22.3888889 L21.6666667,31 L18.3333333,31 L18.3333333,22.3888889 L13.3333333,22.3888889 L20,15.5 L26.6666667,22.3888889 L26.6666667,22.3888889 Z M32.465,12.214 C32.1116667,5.4095 26.6766667,0 20,0 C13.3233333,0 7.88833333,5.4095 7.535,12.214 C3.25166667,13.0113889 0,16.8743333 0,21.5277778 C0,26.7581667 4.105,31 9.16666667,31 L15,31 L15,27.5555556 L9.16666667,27.5555556 C5.95,27.5555556 3.33333333,24.8516667 3.33333333,21.5277778 C3.33333333,16.7107222 7.465,14.9265 10.7216667,15.1211111 C10.4433333,7.85677778 14.4016667,3.44444444 20,3.44444444 C25.755,3.44444444 29.8183333,8.2615 29.2783333,15.1211111 C32.1866667,15.0418889 36.6666667,16.4145 36.6666667,21.5277778 C36.6666667,24.8516667 34.05,27.5555556 30.8333333,27.5555556 L25,27.5555556 L25,31 L30.8333333,31 C35.895,31 40,26.7581667 40,21.5277778 C40,16.8743333 36.7483333,13.0113889 32.465,12.214 L32.465,12.214 Z" id="Shape"></path>
                </g>
            </g>
        </g>
    </g>
</svg>