<?xml version="1.0" encoding="UTF-8" standalone="no"?>
<svg viewBox="0 0 41 27" version="1.1" xmlns="http://www.w3.org/2000/svg" xmlns:xlink="http://www.w3.org/1999/xlink">
    <g id="Atoms" stroke="none" stroke-width="1">
        <g id="Modelsheet-#1" transform="translate(-1049.000000, -1616.000000)">
            <g id="Basic-Icons" transform="translate(135.000000, 1546.000000)">
                <g id="Users" transform="translate(914.000000, 70.000000)">
                    <path d="M17.0138685,20.358 C20.8355352,19.4653125 24.3938685,18.6823125 22.6705352,15.3883125 C17.4272019,5.3611875 21.2805352,0 26.8172019,0 C32.4638685,0 36.2238685,5.5670625 30.9638685,15.3883125 C29.1888685,18.7025625 32.8788685,19.483875 36.6205352,20.358 C39.9305352,21.1325625 40.1505352,22.771125 40.1505352,25.6078125 L40.1455352,27 L13.4888685,27 C13.4888685,23.29425 13.1955352,21.2506875 17.0138685,20.358 L17.0138685,20.358 Z M0.153868528,27 L10.1555352,27 C10.1088685,15.960375 15.1472019,20.7613125 15.1472019,11.9795625 C15.1472019,8.589375 12.9622019,6.75 10.1505352,6.75 C5.99720186,6.75 3.10720186,10.7713125 7.04053519,18.2908125 C8.33220186,20.7613125 5.66553519,21.3485625 2.79886853,22.0185 C0.315535194,22.599 0.150535194,23.8275 0.150535194,25.9554375 L0.153868528,27 L0.153868528,27 Z" id="Shape"></path>
                </g>
            </g>
        </g>
    </g>
</svg>
