<?xml version="1.0" encoding="UTF-8" standalone="no"?>
<svg width="41px" height="32px" viewBox="0 0 41 32" version="1.1" xmlns="http://www.w3.org/2000/svg" xmlns:xlink="http://www.w3.org/1999/xlink">
    <!-- Generator: sketchtool 40.1 (33804) - http://www.bohemiancoding.com/sketch -->
    <title>59D7F376-CF93-4FDA-A415-44D5091E6177</title>
    <desc>Created with sketchtool.</desc>
    <defs></defs>
    <g id="Atoms" stroke="none" stroke-width="1" fill="none" fill-rule="evenodd">
        <g id="Modelsheet-#1" transform="translate(-651.000000, -1016.000000)" fill="#34495E">
            <g id="Document-Type" transform="translate(135.000000, 950.000000)">
                <g id="Video" transform="translate(516.909091, 66.000000)">
                    <path d="M32,0 L36,8 L30,8 L26,0 L22,0 L26,8 L20,8 L16,0 L12,0 L16,8 L10,8 L6,0 L4,0 C1.8,0 0,1.8 0,4 L0,28 C0,30.2 1.8,32 4,32 L36,32 C38.2,32 40,30.2 40,28 L40,0 L32,0 L32,0 Z" id="Shape"></path>
                </g>
            </g>
        </g>
    </g>
</svg>