<?xml version="1.0" encoding="UTF-8" standalone="no"?>
<svg width="40px" height="34px" viewBox="0 0 40 34" version="1.1" xmlns="http://www.w3.org/2000/svg" xmlns:xlink="http://www.w3.org/1999/xlink">
    <!-- Generator: sketchtool 40.1 (33804) - http://www.bohemiancoding.com/sketch -->
    <title>A50E724E-6E78-46FB-AFFE-AC5C1029FACE</title>
    <desc>Created with sketchtool.</desc>
    <defs></defs>
    <g id="Atoms" stroke="none" stroke-width="1" fill="none" fill-rule="evenodd">
        <g id="Modelsheet-#1" transform="translate(-451.000000, -1452.000000)" fill="#34495E">
            <g id="View-Modes" transform="translate(135.000000, 1387.000000)">
                <g id="View-mode-4" transform="translate(316.000000, 65.000000)">
                    <path d="M0,14.1666667 L0,34 L9.76744186,34 L9.76744186,14.1666667 L0,14.1666667 Z M40,0 L40,22.6666667 L40,34 L22.5181661,34 C17.7880252,34 13.9534884,30.1717663 13.9534884,25.4321642 L13.9534884,12.860336 L13.9534884,0 L40,0 Z M17.1428571,5.66666667 L37.1428571,5.66666667 L37.1428571,8.5 L17.1428571,8.5 L17.1428571,5.66666667 Z M17.1428571,11.3333333 L37.1428571,11.3333333 L37.1428571,14.1666667 L17.1428571,14.1666667 L17.1428571,11.3333333 Z M17.1428571,17 L37.1428571,17 L37.1428571,19.8333333 L17.1428571,19.8333333 L17.1428571,17 Z M17.1428571,22.6666667 L37.1428571,22.6666667 L37.1428571,25.5 L17.1428571,25.5 L17.1428571,22.6666667 Z M0,0 L0,11.3333333 L9.76744186,11.3333333 L9.76744186,0 L0,0 Z" id="Combined-Shape"></path>
                </g>
            </g>
        </g>
    </g>
</svg>