<?xml version="1.0" encoding="UTF-8" standalone="no"?>
<svg width="37px" height="36px" viewBox="0 0 37 36" version="1.1" xmlns="http://www.w3.org/2000/svg" xmlns:xlink="http://www.w3.org/1999/xlink">
    <!-- Generator: sketchtool 40.1 (33804) - http://www.bohemiancoding.com/sketch -->
    <title>C4D7FB81-CB10-492F-94B7-EA1A49C08D91</title>
    <desc>Created with sketchtool.</desc>
    <defs></defs>
    <g id="Atoms" stroke="none" stroke-width="1" fill="none" fill-rule="evenodd">
        <g id="Modelsheet-#1" transform="translate(-854.000000, -1014.000000)" fill="#34495E">
            <g id="Document-Type" transform="translate(135.000000, 950.000000)">
                <g id="Word" transform="translate(719.272727, 64.000000)">
                    <path d="M32,0 L4,0 C1.8,0 0,1.8 0,4 L0,32 C0,34.2 1.8,36 4,36 L32,36 C34.2,36 36,34.2 36,32 L36,4 C36,1.8 34.2,0 32,0 L32,0 Z M25,28 L22,28 L18,13 L14,28 L11,28 L6.2,8 L9.6,8 L12.6,23 L16.6,8 L19.4,8 L23.4,23 L26.4,8 L29.8,8 L25,28 L25,28 Z" id="Shape"></path>
                </g>
            </g>
        </g>
    </g>
</svg>